<?xml version="1.0" standalone="no"?>
<svg xmlns:xlink="http://www.w3.org/1999/xlink" id="wave" style="transform:rotate(0deg); transition: 0.3s" viewBox="0 0 1440 490" version="1.1" xmlns="http://www.w3.org/2000/svg"><defs><linearGradient id="sw-gradient-0" x1="0" x2="0" y1="1" y2="0"><stop stop-color="rgba(8.778, 7.653, 9.932, 1)" offset="0%"/><stop stop-color="rgba(105, 27, 185, 1)" offset="100%"/></linearGradient></defs><path style="transform:translate(0, 0px); opacity:1" fill="url(#sw-gradient-0)" d="M0,98L34.3,81.7C68.6,65,137,33,206,24.5C274.3,16,343,33,411,32.7C480,33,549,16,617,40.8C685.7,65,754,131,823,179.7C891.4,229,960,261,1029,245C1097.1,229,1166,163,1234,130.7C1302.9,98,1371,98,1440,122.5C1508.6,147,1577,196,1646,196C1714.3,196,1783,147,1851,155.2C1920,163,1989,229,2057,228.7C2125.7,229,2194,163,2263,147C2331.4,131,2400,163,2469,196C2537.1,229,2606,261,2674,294C2742.9,327,2811,359,2880,375.7C2948.6,392,3017,392,3086,334.8C3154.3,278,3223,163,3291,130.7C3360,98,3429,147,3497,204.2C3565.7,261,3634,327,3703,318.5C3771.4,310,3840,229,3909,187.8C3977.1,147,4046,147,4114,155.2C4182.9,163,4251,180,4320,196C4388.6,212,4457,229,4526,253.2C4594.3,278,4663,310,4731,334.8C4800,359,4869,376,4903,383.8L4937.1,392L4937.1,490L4902.9,490C4868.6,490,4800,490,4731,490C4662.9,490,4594,490,4526,490C4457.1,490,4389,490,4320,490C4251.4,490,4183,490,4114,490C4045.7,490,3977,490,3909,490C3840,490,3771,490,3703,490C3634.3,490,3566,490,3497,490C3428.6,490,3360,490,3291,490C3222.9,490,3154,490,3086,490C3017.1,490,2949,490,2880,490C2811.4,490,2743,490,2674,490C2605.7,490,2537,490,2469,490C2400,490,2331,490,2263,490C2194.3,490,2126,490,2057,490C1988.6,490,1920,490,1851,490C1782.9,490,1714,490,1646,490C1577.1,490,1509,490,1440,490C1371.4,490,1303,490,1234,490C1165.7,490,1097,490,1029,490C960,490,891,490,823,490C754.3,490,686,490,617,490C548.6,490,480,490,411,490C342.9,490,274,490,206,490C137.1,490,69,490,34,490L0,490Z"/><defs><linearGradient id="sw-gradient-1" x1="0" x2="0" y1="1" y2="0"><stop stop-color="rgba(6.45, 3.054, 9.932, 1)" offset="0%"/><stop stop-color="rgba(202.616, 18, 231, 1)" offset="100%"/></linearGradient></defs><path style="transform:translate(0, 50px); opacity:0.9" fill="url(#sw-gradient-1)" d="M0,49L34.3,73.5C68.6,98,137,147,206,171.5C274.3,196,343,196,411,196C480,196,549,196,617,220.5C685.7,245,754,294,823,294C891.4,294,960,245,1029,261.3C1097.1,278,1166,359,1234,334.8C1302.9,310,1371,180,1440,106.2C1508.6,33,1577,16,1646,8.2C1714.3,0,1783,0,1851,40.8C1920,82,1989,163,2057,228.7C2125.7,294,2194,343,2263,367.5C2331.4,392,2400,392,2469,334.8C2537.1,278,2606,163,2674,130.7C2742.9,98,2811,147,2880,187.8C2948.6,229,3017,261,3086,294C3154.3,327,3223,359,3291,326.7C3360,294,3429,196,3497,187.8C3565.7,180,3634,261,3703,294C3771.4,327,3840,310,3909,277.7C3977.1,245,4046,196,4114,212.3C4182.9,229,4251,310,4320,318.5C4388.6,327,4457,261,4526,228.7C4594.3,196,4663,196,4731,212.3C4800,229,4869,261,4903,277.7L4937.1,294L4937.1,490L4902.9,490C4868.6,490,4800,490,4731,490C4662.9,490,4594,490,4526,490C4457.1,490,4389,490,4320,490C4251.4,490,4183,490,4114,490C4045.7,490,3977,490,3909,490C3840,490,3771,490,3703,490C3634.3,490,3566,490,3497,490C3428.6,490,3360,490,3291,490C3222.9,490,3154,490,3086,490C3017.1,490,2949,490,2880,490C2811.4,490,2743,490,2674,490C2605.7,490,2537,490,2469,490C2400,490,2331,490,2263,490C2194.3,490,2126,490,2057,490C1988.6,490,1920,490,1851,490C1782.9,490,1714,490,1646,490C1577.1,490,1509,490,1440,490C1371.4,490,1303,490,1234,490C1165.7,490,1097,490,1029,490C960,490,891,490,823,490C754.3,490,686,490,617,490C548.6,490,480,490,411,490C342.9,490,274,490,206,490C137.1,490,69,490,34,490L0,490Z"/></svg>