<?xml version="1.0" standalone="no"?>
<svg xmlns:xlink="http://www.w3.org/1999/xlink" id="wave" style="transform:rotate(0deg); transition: 0.3s" viewBox="0 0 1440 490" version="1.1" xmlns="http://www.w3.org/2000/svg"><defs><linearGradient id="sw-gradient-0" x1="0" x2="0" y1="1" y2="0"><stop stop-color="rgba(2, 44, 34, 1)" offset="0%"/><stop stop-color="rgba(98, 191, 174, 1)" offset="100%"/></linearGradient></defs><path style="transform:translate(0, 0px); opacity:1" fill="url(#sw-gradient-0)" d="M0,343L34.3,318.5C68.6,294,137,245,206,253.2C274.3,261,343,327,411,351.2C480,376,549,359,617,334.8C685.7,310,754,278,823,228.7C891.4,180,960,114,1029,81.7C1097.1,49,1166,49,1234,73.5C1302.9,98,1371,147,1440,171.5C1508.6,196,1577,196,1646,196C1714.3,196,1783,196,1851,187.8C1920,180,1989,163,2057,171.5C2125.7,180,2194,212,2263,187.8C2331.4,163,2400,82,2469,65.3C2537.1,49,2606,98,2674,147C2742.9,196,2811,245,2880,277.7C2948.6,310,3017,327,3086,318.5C3154.3,310,3223,278,3291,220.5C3360,163,3429,82,3497,81.7C3565.7,82,3634,163,3703,236.8C3771.4,310,3840,376,3909,375.7C3977.1,376,4046,310,4114,310.3C4182.9,310,4251,376,4320,400.2C4388.6,425,4457,408,4526,375.7C4594.3,343,4663,294,4731,294C4800,294,4869,343,4903,367.5L4937.1,392L4937.1,490L4902.9,490C4868.6,490,4800,490,4731,490C4662.9,490,4594,490,4526,490C4457.1,490,4389,490,4320,490C4251.4,490,4183,490,4114,490C4045.7,490,3977,490,3909,490C3840,490,3771,490,3703,490C3634.3,490,3566,490,3497,490C3428.6,490,3360,490,3291,490C3222.9,490,3154,490,3086,490C3017.1,490,2949,490,2880,490C2811.4,490,2743,490,2674,490C2605.7,490,2537,490,2469,490C2400,490,2331,490,2263,490C2194.3,490,2126,490,2057,490C1988.6,490,1920,490,1851,490C1782.9,490,1714,490,1646,490C1577.1,490,1509,490,1440,490C1371.4,490,1303,490,1234,490C1165.7,490,1097,490,1029,490C960,490,891,490,823,490C754.3,490,686,490,617,490C548.6,490,480,490,411,490C342.9,490,274,490,206,490C137.1,490,69,490,34,490L0,490Z"/><defs><linearGradient id="sw-gradient-1" x1="0" x2="0" y1="1" y2="0"><stop stop-color="rgba(2, 44, 34, 1)" offset="0%"/><stop stop-color="rgba(98, 191, 174, 1)" offset="100%"/></linearGradient></defs><path style="transform:translate(0, 50px); opacity:0.9" fill="url(#sw-gradient-1)" d="M0,441L34.3,432.8C68.6,425,137,408,206,359.3C274.3,310,343,229,411,212.3C480,196,549,245,617,220.5C685.7,196,754,98,823,65.3C891.4,33,960,65,1029,81.7C1097.1,98,1166,98,1234,130.7C1302.9,163,1371,229,1440,253.2C1508.6,278,1577,261,1646,253.2C1714.3,245,1783,245,1851,245C1920,245,1989,245,2057,245C2125.7,245,2194,245,2263,204.2C2331.4,163,2400,82,2469,73.5C2537.1,65,2606,131,2674,204.2C2742.9,278,2811,359,2880,343C2948.6,327,3017,212,3086,138.8C3154.3,65,3223,33,3291,81.7C3360,131,3429,261,3497,285.8C3565.7,310,3634,229,3703,187.8C3771.4,147,3840,147,3909,179.7C3977.1,212,4046,278,4114,285.8C4182.9,294,4251,245,4320,196C4388.6,147,4457,98,4526,138.8C4594.3,180,4663,310,4731,302.2C4800,294,4869,147,4903,73.5L4937.1,0L4937.1,490L4902.9,490C4868.6,490,4800,490,4731,490C4662.9,490,4594,490,4526,490C4457.1,490,4389,490,4320,490C4251.4,490,4183,490,4114,490C4045.7,490,3977,490,3909,490C3840,490,3771,490,3703,490C3634.3,490,3566,490,3497,490C3428.6,490,3360,490,3291,490C3222.9,490,3154,490,3086,490C3017.1,490,2949,490,2880,490C2811.4,490,2743,490,2674,490C2605.7,490,2537,490,2469,490C2400,490,2331,490,2263,490C2194.3,490,2126,490,2057,490C1988.6,490,1920,490,1851,490C1782.9,490,1714,490,1646,490C1577.1,490,1509,490,1440,490C1371.4,490,1303,490,1234,490C1165.7,490,1097,490,1029,490C960,490,891,490,823,490C754.3,490,686,490,617,490C548.6,490,480,490,411,490C342.9,490,274,490,206,490C137.1,490,69,490,34,490L0,490Z"/></svg>