<?xml version="1.0" standalone="no"?>
<svg xmlns:xlink="http://www.w3.org/1999/xlink" id="wave" style="transform:rotate(0deg); transition: 0.3s" viewBox="0 0 1440 490" version="1.1" xmlns="http://www.w3.org/2000/svg"><defs><linearGradient id="sw-gradient-0" x1="0" x2="0" y1="1" y2="0"><stop stop-color="rgba(0, 0, 0, 1)" offset="0%"/><stop stop-color="rgba(180.691, 3.52, 3.52, 1)" offset="100%"/></linearGradient></defs><path style="transform:translate(0, 0px); opacity:1" fill="url(#sw-gradient-0)" d="M0,0L40,16.3C80,33,160,65,240,65.3C320,65,400,33,480,81.7C560,131,640,261,720,269.5C800,278,880,163,960,163.3C1040,163,1120,278,1200,343C1280,408,1360,425,1440,400.2C1520,376,1600,310,1680,236.8C1760,163,1840,82,1920,49C2000,16,2080,33,2160,32.7C2240,33,2320,16,2400,81.7C2480,147,2560,294,2640,343C2720,392,2800,343,2880,277.7C2960,212,3040,131,3120,155.2C3200,180,3280,310,3360,367.5C3440,425,3520,408,3600,359.3C3680,310,3760,229,3840,236.8C3920,245,4000,343,4080,367.5C4160,392,4240,343,4320,277.7C4400,212,4480,131,4560,98C4640,65,4720,82,4800,89.8C4880,98,4960,98,5040,155.2C5120,212,5200,327,5280,334.8C5360,343,5440,245,5520,245C5600,245,5680,343,5720,392L5760,441L5760,490L5720,490C5680,490,5600,490,5520,490C5440,490,5360,490,5280,490C5200,490,5120,490,5040,490C4960,490,4880,490,4800,490C4720,490,4640,490,4560,490C4480,490,4400,490,4320,490C4240,490,4160,490,4080,490C4000,490,3920,490,3840,490C3760,490,3680,490,3600,490C3520,490,3440,490,3360,490C3280,490,3200,490,3120,490C3040,490,2960,490,2880,490C2800,490,2720,490,2640,490C2560,490,2480,490,2400,490C2320,490,2240,490,2160,490C2080,490,2000,490,1920,490C1840,490,1760,490,1680,490C1600,490,1520,490,1440,490C1360,490,1280,490,1200,490C1120,490,1040,490,960,490C880,490,800,490,720,490C640,490,560,490,480,490C400,490,320,490,240,490C160,490,80,490,40,490L0,490Z"/><defs><linearGradient id="sw-gradient-1" x1="0" x2="0" y1="1" y2="0"><stop stop-color="rgba(194.352, 9.273, 9.273, 1)" offset="0%"/><stop stop-color="rgba(0, 0, 0, 1)" offset="100%"/></linearGradient></defs><path style="transform:translate(0, 50px); opacity:0.9" fill="url(#sw-gradient-1)" d="M0,343L40,318.5C80,294,160,245,240,253.2C320,261,400,327,480,302.2C560,278,640,163,720,122.5C800,82,880,114,960,171.5C1040,229,1120,310,1200,351.2C1280,392,1360,392,1440,400.2C1520,408,1600,425,1680,424.7C1760,425,1840,408,1920,343C2000,278,2080,163,2160,163.3C2240,163,2320,278,2400,318.5C2480,359,2560,327,2640,334.8C2720,343,2800,392,2880,408.3C2960,425,3040,408,3120,359.3C3200,310,3280,229,3360,163.3C3440,98,3520,49,3600,73.5C3680,98,3760,196,3840,228.7C3920,261,4000,229,4080,187.8C4160,147,4240,98,4320,98C4400,98,4480,147,4560,147C4640,147,4720,98,4800,73.5C4880,49,4960,49,5040,49C5120,49,5200,49,5280,73.5C5360,98,5440,147,5520,171.5C5600,196,5680,196,5720,196L5760,196L5760,490L5720,490C5680,490,5600,490,5520,490C5440,490,5360,490,5280,490C5200,490,5120,490,5040,490C4960,490,4880,490,4800,490C4720,490,4640,490,4560,490C4480,490,4400,490,4320,490C4240,490,4160,490,4080,490C4000,490,3920,490,3840,490C3760,490,3680,490,3600,490C3520,490,3440,490,3360,490C3280,490,3200,490,3120,490C3040,490,2960,490,2880,490C2800,490,2720,490,2640,490C2560,490,2480,490,2400,490C2320,490,2240,490,2160,490C2080,490,2000,490,1920,490C1840,490,1760,490,1680,490C1600,490,1520,490,1440,490C1360,490,1280,490,1200,490C1120,490,1040,490,960,490C880,490,800,490,720,490C640,490,560,490,480,490C400,490,320,490,240,490C160,490,80,490,40,490L0,490Z"/></svg>