<!DOCTYPE svg PUBLIC "-//W3C//DTD SVG 1.1//EN" "http://www.w3.org/Graphics/SVG/1.1/DTD/svg11.dtd">
<!-- Uploaded to: SVG Repo, www.svgrepo.com, Transformed by: SVG Repo Mixer Tools -->
<svg height="100px" width="100px" version="1.1" id="_x32_" xmlns="http://www.w3.org/2000/svg" xmlns:xlink="http://www.w3.org/1999/xlink" viewBox="-153.6 -153.6 819.20 819.20" xml:space="preserve" fill="#000000">
<g id="SVGRepo_bgCarrier" stroke-width="0">
<path transform="translate(-153.6, -153.6), scale(25.6)" d="M16,28.574921995401382C18.31223359362948,28.73683413734269,19.577213535261297,25.85074979878956,21.480471302637355,24.527779805124013C23.2932761577948,23.26768436831361,25.698493017173483,22.82650100089087,26.917694073489308,20.9859438197549C28.21311010903827,19.030329301183905,28.19180275784008,16.57460993862165,28.300882623523144,14.231400081757432C28.432620147994978,11.401467500448634,29.235004393451703,8.259060417732634,27.618451490942,5.932554474586455C25.984274850909852,3.58068485170993,22.855347845710025,2.7089032343187047,20.019049299513675,2.3123750881794916C17.40947671691263,1.9475443196476678,14.907679150623922,2.9390807300128285,12.420030112782971,3.8077422394971645C10.051347671381444,4.6348618346401675,7.529173021988542,5.340220815395082,5.895312965339359,7.244238842662616C4.264800007631631,9.144356329796592,4.06473710178021,11.763495608152745,3.4999417129084804,14.202762944644252C2.881081859364544,16.875526668213674,0.7445539137293733,20.03361613374396,2.433417544011183,22.19565061049692C4.2567940648290055,24.52988460750246,8.311109456289817,22.532907338165305,10.991548824135442,23.79330215120982C13.12349220730355,24.795783466058353,13.649878795833017,28.410356806556827,16,28.574921995401382" fill="#7ed0ec" strokewidth="0"/>
</g>
<g id="SVGRepo_tracerCarrier" stroke-linecap="round" stroke-linejoin="round"/>
<g id="SVGRepo_iconCarrier"> <style type="text/css"> .st0{fill:#742a2a;} </style> <g> <path class="st0" d="M505.352,118.176c-7.68-66.438-74.119-48.552-99.658-28.111c-25.548,20.45-6.404-16.61,15.323-28.102 c25.262-13.38,15.333-38.327-12.77-56.223c-28.102-17.886-88.165,6.394-93.264,67.725c-3.84,45.893,10.216,56.213-25.567,91.987 c0,0-78.407,80.294-103.974,105.861c-25.548,25.557-61.321,45.988-106.042,44.711c-44.711-1.276-76.654,30.666-72.88,74.139 c3.773,43.473,62.674,53.631,69.83,32.056c7.176-21.594,29.874-23.137,29.874-23.137c-3.84,6.384-38.317,56.214-1.276,95.828 c37.059,39.613,108.615,6.385,99.658-58.787c-8.234-60.148-43.168-16.199-13.77-45.588 c29.388-29.38,175.235-175.244,175.235-175.244c23.013-23.004,43.454-24.281,69.002-26.844 C460.64,185.882,510.945,166.672,505.352,118.176z"/> </g> </g>
</svg>