<!DOCTYPE svg PUBLIC "-//W3C//DTD SVG 1.1//EN" "http://www.w3.org/Graphics/SVG/1.1/DTD/svg11.dtd">
<!-- Uploaded to: SVG Repo, www.svgrepo.com, Transformed by: SVG Repo Mixer Tools -->
<svg height="100px" width="100px" version="1.1" id="_x32_" xmlns="http://www.w3.org/2000/svg" xmlns:xlink="http://www.w3.org/1999/xlink" viewBox="-153.6 -153.6 819.20 819.20" xml:space="preserve" fill="#000000">
<g id="SVGRepo_bgCarrier" stroke-width="0">
<path transform="translate(-153.6, -153.6), scale(25.6)" d="M16,26.543462555198108C18.4508259069496,26.97901380765978,20.772059108522686,30.43577002864191,22.890283012999667,29.128337426096543C25.092999423873408,27.76875346348937,22.72376786238898,23.780717441100034,24.063952370043147,21.566144429534404C25.28035289316495,19.55611688901683,28.713889532670297,19.750968826074967,29.819634533517807,17.678007432466572C30.921800031322018,15.611756601972973,31.06484112875972,12.74501291201564,29.830970488793675,10.754604782285641C28.566345248227805,8.714585125157454,25.19930399981132,9.226802500869864,23.51849381504156,7.513374847503686C21.647695020217625,5.606271702852923,22.259306815011342,1.6078518285363272,19.810601396604714,0.5397823977793585C17.51071232789285,-0.4633767368223274,15.17199879416893,2.158907688049723,12.750599804435565,2.8166651739313835C10.393551141487928,3.4569423067850176,7.26507333750517,2.4983738966978377,5.699381074909194,4.373004779086584C4.064855037124528,6.330051551112652,5.107310727789144,9.34373291167772,5.170207968323396,11.892801638335921C5.215149055538556,13.714152129853908,5.917854586336516,15.393005241629792,6.016184377100696,17.212254693057815C6.123005896849423,19.1886139397651,4.974754960776184,21.247873407506006,5.7737203571538345,23.058691179817156C6.581748928141218,24.890050214279675,8.390698622225619,26.24259516550165,10.285406711802008,26.88824781200222C12.118368965030404,27.512859558921587,14.093410492028763,26.204630879813735,16,26.543462555198108" fill="#7ed0ec" strokewidth="0"/>
</g>
<g id="SVGRepo_tracerCarrier" stroke-linecap="round" stroke-linejoin="round"/>
<g id="SVGRepo_iconCarrier"> <style type="text/css"> .st0{fill:#742a2a;} </style> <g> <path class="st0" d="M395.024,40.234l-13.294-13.295C364.48,9.69,341.094,0,316.688,0H195.312c-24.39,0-47.792,9.69-65.042,26.939 l-13.294,13.295c-34.14,34.14-38.367,88.043-9.971,127.084l66.286,91.162l71.98-97.784l-57.764-78.49H324.51L59.144,442.765 L154.321,512l250.674-344.682C433.391,128.277,429.164,74.365,395.024,40.234z"/> <polygon class="st0" points="338.777,287.771 266.695,386.911 357.679,512 452.856,442.774 "/> </g> </g>
</svg>