<!DOCTYPE svg PUBLIC "-//W3C//DTD SVG 1.1//EN" "http://www.w3.org/Graphics/SVG/1.1/DTD/svg11.dtd">
<!-- Uploaded to: SVG Repo, www.svgrepo.com, Transformed by: SVG Repo Mixer Tools -->
<svg height="100px" width="100px" version="1.1" id="_x32_" xmlns="http://www.w3.org/2000/svg" xmlns:xlink="http://www.w3.org/1999/xlink" viewBox="-153.6 -153.6 819.20 819.20" xml:space="preserve" fill="#000000">
<g id="SVGRepo_bgCarrier" stroke-width="0">
<path transform="translate(-153.6, -153.6), scale(25.6)" d="M16,29.909031817689538C18.225041060774025,30.79561367469544,21.600635666983376,31.359104086235813,23.06719950916115,29.465423646425762C24.852554454469082,27.160108568544583,21.43526726545503,23.293103008556663,23.019493812213916,20.845206740822633C24.527873665997983,18.514506360907095,29.138643013096186,20.11703530334755,30.63193342788918,17.776638375190394C31.897610639181725,15.792973960014852,30.919766911454015,12.684011750009105,29.338677855485543,10.941306751360244C27.691194919239443,9.125421215155487,24.158202379762212,10.48092103560067,22.43256012562812,8.739140591179869C20.512735676031294,6.801361961213126,21.792697945220922,2.8632569220813107,19.65579242872341,1.167867070280833C17.67809854120857,-0.40120658364288,14.549421522738168,-0.32289769382708133,12.21163738804963,0.6300086938887421C9.889379012531794,1.5765866123210344,8.969339744950304,4.31220915258905,7.315942157963567,6.197725033634017C5.868012132046054,7.848928035257376,4.118547064615777,9.17136195016904,3.0428426298759508,11.08599838605042C1.8607030527229003,13.190077753597198,0.717585012072615,15.436432659141804,0.7697169123922478,17.849291177533775C0.8234466989397763,20.336105822074302,1.2579951373178964,23.375742803899115,3.337850272963461,24.740050899965553C5.611754574235154,26.231648076488305,8.859674989764756,23.779754554552195,11.377434833350836,24.80756206492461C13.533306737487901,25.68763859014114,13.83681156553369,29.047095535661704,16,29.909031817689538" fill="#7ed0ec" strokewidth="0"/>
</g>
<g id="SVGRepo_tracerCarrier" stroke-linecap="round" stroke-linejoin="round"/>
<g id="SVGRepo_iconCarrier"> <style type="text/css"> .st0{fill:#742a2a;} </style> <g> <path class="st0" d="M505.465,145.22c-6.322-14.934-16.828-27.578-30.072-36.536c-13.236-8.951-29.314-14.2-46.45-14.192h-70.23 V75.574c0-10.095-2.06-19.803-5.785-28.604c-5.589-13.212-14.878-24.389-26.6-32.313C314.632,6.74,300.385,2.091,285.239,2.099 h-58.478c-10.086,0-19.803,2.06-28.604,5.786c-13.212,5.588-24.396,14.878-32.313,26.598c-7.916,11.698-12.558,25.936-12.558,41.09 v18.919H83.056c-11.413,0-22.392,2.329-32.329,6.536c-14.933,6.322-27.578,16.827-36.536,30.072 C5.241,144.336-0.008,160.413,0,177.549v249.295c0,11.421,2.32,22.384,6.536,32.337c6.314,14.924,16.827,27.569,30.072,36.52 c13.236,8.958,29.313,14.207,46.448,14.2h345.888c11.413,0.007,22.385-2.32,32.337-6.535c14.926-6.315,27.57-16.828,36.521-30.072 c8.958-13.229,14.207-29.314,14.199-46.45V177.549C512,166.136,509.68,155.157,505.465,145.22z M190.722,75.574 c0-5.028,1.01-9.724,2.826-14.026c2.723-6.44,7.317-11.981,13.079-15.872c5.777-3.884,12.612-6.133,20.134-6.141h58.478 c5.027,0,9.716,1.01,14.017,2.826c6.449,2.715,11.981,7.317,15.873,13.079c3.891,5.777,6.141,12.604,6.141,20.134v18.919H190.722 V75.574z M474.564,426.844c0,6.354-1.278,12.305-3.584,17.751c-3.449,8.16-9.258,15.162-16.544,20.087 c-7.309,4.917-15.983,7.774-25.494,7.782H83.056c-6.353,0-12.297-1.279-17.751-3.583c-8.161-3.442-15.162-9.251-20.087-16.552 c-4.917-7.292-7.774-15.974-7.782-25.486V236.643h437.129V426.844z M474.564,206.223H37.436v-28.674 c0.008-6.346,1.278-12.297,3.584-17.751c3.44-8.162,9.258-15.162,16.551-20.088c7.294-4.917,15.976-7.774,25.486-7.782h345.888 c6.354,0.008,12.297,1.278,17.751,3.584c8.162,3.442,15.162,9.258,20.088,16.544c4.917,7.301,7.766,15.983,7.782,25.494V206.223z"/> <polygon class="st0" points="229.05,438.241 287.149,438.241 287.149,384.018 341.373,384.018 341.373,325.919 287.149,325.919 287.149,271.703 229.05,271.703 229.05,325.919 174.826,325.919 174.826,384.018 229.05,384.018 "/> </g> </g>
</svg>