<!DOCTYPE svg PUBLIC "-//W3C//DTD SVG 1.1//EN" "http://www.w3.org/Graphics/SVG/1.1/DTD/svg11.dtd">
<!-- Uploaded to: SVG Repo, www.svgrepo.com, Transformed by: SVG Repo Mixer Tools -->
<svg width="100px" height="100px" viewBox="-7.2 -7.2 38.40 38.40" fill="none" xmlns="http://www.w3.org/2000/svg">
<g id="SVGRepo_bgCarrier" stroke-width="0">
<path transform="translate(-7.2, -7.2), scale(1.2)" d="M16,29.372515799183596C18.299928484831597,28.877003135220928,19.022708399052146,25.889583727574703,20.864755648629444,24.42600394983389C22.35896339760115,23.23879648507399,24.96690706320868,23.3692150296173,25.747512937940378,21.627729218649236C26.543043165200537,19.852948054664346,24.581799664675888,17.943999952800336,24.6416386656071,16C24.70435387234806,13.96256025256104,26.28254258347187,12.198860071752913,26.100240017168055,10.168623707208198C25.87007951015393,7.605411128821395,25.548452591800515,4.576008623910131,23.478523612218474,3.046817138034088C21.436632489645618,1.5383390450539243,18.438226472753563,1.999897993430245,16,2.7069179231398977C13.817835671359568,3.339686735836735,12.61013862482533,5.585450624758017,10.666426552949769,6.761979803808721C8.776481348366985,7.905963890841212,6.333454802454726,7.959864602709041,4.75992260061858,9.510538287754901C2.9827396324576188,11.261904328451832,0.8234817105385568,13.549298310529423,1.292228486584989,15.999999999999996C1.7838651960506298,18.570374829359576,5.3834907534919925,19.137213383650728,6.995528839590625,21.198733848372566C8.303430429743397,22.87131585322304,8.180961594986163,25.392893825418263,9.753081209467425,26.819980735959128C11.44750653273648,28.358090290380098,13.762912716455787,29.85448951562599,16,29.372515799183596" fill="#7ed0ec" strokewidth="0"/>
</g>
<g id="SVGRepo_tracerCarrier" stroke-linecap="round" stroke-linejoin="round"/>
<g id="SVGRepo_iconCarrier"> <path fill-rule="evenodd" clip-rule="evenodd" d="M20 9C20 13.0803 16.9453 16.4471 12.9981 16.9383C12.9994 16.9587 13 16.9793 13 17V19H14C14.5523 19 15 19.4477 15 20C15 20.5523 14.5523 21 14 21H13V22C13 22.5523 12.5523 23 12 23C11.4477 23 11 22.5523 11 22V21H10C9.44772 21 9 20.5523 9 20C9 19.4477 9.44772 19 10 19H11V17C11 16.9793 11.0006 16.9587 11.0019 16.9383C7.05466 16.4471 4 13.0803 4 9C4 4.58172 7.58172 1 12 1C16.4183 1 20 4.58172 20 9ZM6.00365 9C6.00365 12.3117 8.68831 14.9963 12 14.9963C15.3117 14.9963 17.9963 12.3117 17.9963 9C17.9963 5.68831 15.3117 3.00365 12 3.00365C8.68831 3.00365 6.00365 5.68831 6.00365 9Z" fill="#742a2a"/> </g>
</svg>