<!DOCTYPE svg PUBLIC "-//W3C//DTD SVG 1.1//EN" "http://www.w3.org/Graphics/SVG/1.1/DTD/svg11.dtd">
<!-- Uploaded to: SVG Repo, www.svgrepo.com, Transformed by: SVG Repo Mixer Tools -->
<svg height="100px" width="100px" version="1.1" id="_x32_" xmlns="http://www.w3.org/2000/svg" xmlns:xlink="http://www.w3.org/1999/xlink" viewBox="0 0 512 512" xml:space="preserve" fill="#000000">
<g id="SVGRepo_bgCarrier" stroke-width="0"/>
<g id="SVGRepo_tracerCarrier" stroke-linecap="round" stroke-linejoin="round"/>
<g id="SVGRepo_iconCarrier"> <style type="text/css"> .st0{fill:#004f3b;} </style> <g> <path class="st0" d="M467.766,44.211c-29.494-29.494-68.22-44.24-106.884-44.181c-38.666-0.06-77.392,14.688-106.886,44.182 l-82.428,82.426l213.71,213.71l82.428-82.426C526.755,198.875,526.755,103.199,467.766,44.211z M409.917,57.219 c-2.638,13.788-16.006,22.842-29.853,20.142c-7.854-1.497-15.945-2.277-24.039-2.338c-8.033,0-16.127,0.779-24.039,2.338 c-8.572,1.619-17.024-1.197-22.84-7.014c-3.474-3.476-5.934-7.972-6.955-13.187c-2.635-13.787,6.355-27.096,20.203-29.795 c11.031-2.158,22.422-3.236,33.692-3.236c11.269,0,22.6,1.138,33.689,3.237C403.562,30.003,412.616,43.372,409.917,57.219z"/> <path class="st0" d="M44.242,253.966C14.688,283.52,0,322.185,0,360.911c0,38.606,14.746,77.332,44.24,106.826 c58.988,58.988,154.666,58.986,213.712-0.06l82.367-82.367l-213.71-213.711L44.242,253.966z"/> </g> </g>
</svg>